<?xml version="1.0" encoding="UTF-8" standalone="no"?>
<!DOCTYPE svg PUBLIC "-//W3C//DTD SVG 1.1//EN"
 "http://www.w3.org/Graphics/SVG/1.1/DTD/svg11.dtd">
<!-- Generated by graphviz version 14.1.5 (0)
 -->
<!-- Title: SSA Pages: 1 -->
<svg width="461pt" height="834pt"
 viewBox="0.00 0.00 461.00 834.00" xmlns="http://www.w3.org/2000/svg" xmlns:xlink="http://www.w3.org/1999/xlink">
<g id="graph0" class="graph" transform="scale(1 1) rotate(0) translate(4 829.82)">
<title>SSA</title>
<polygon fill="white" stroke="none" points="-4,4 -4,-829.82 457,-829.82 457,4 -4,4"/>
<g id="clust1" class="cluster">
<title>cluster_f0</title>
<path fill="#f3f7fa" stroke="#607d8b" stroke-width="1.6" d="M20,-742.47C20,-742.47 123,-742.47 123,-742.47 129,-742.47 135,-748.47 135,-754.47 135,-754.47 135,-793.94 135,-793.94 135,-799.94 129,-805.94 123,-805.94 123,-805.94 20,-805.94 20,-805.94 14,-805.94 8,-799.94 8,-793.94 8,-793.94 8,-754.47 8,-754.47 8,-748.47 14,-742.47 20,-742.47"/>
<text xml:space="preserve" text-anchor="start" x="16" y="-787.74" font-family="Helvetica,sans-Serif" font-weight="bold" font-size="16.00">cond_provider</text>
</g>
<g id="clust2" class="cluster">
<title>cluster_f1</title>
<path fill="#f3f7fa" stroke="#607d8b" stroke-width="1.6" d="M99,-414.48C99,-414.48 123,-414.48 123,-414.48 129,-414.48 135,-420.48 135,-426.48 135,-426.48 135,-465.95 135,-465.95 135,-471.95 129,-477.95 123,-477.95 123,-477.95 99,-477.95 99,-477.95 93,-477.95 87,-471.95 87,-465.95 87,-465.95 87,-426.48 87,-426.48 87,-420.48 93,-414.48 99,-414.48"/>
<text xml:space="preserve" text-anchor="start" x="95" y="-459.75" font-family="Helvetica,sans-Serif" font-weight="bold" font-size="16.00">calc</text>
</g>
<g id="clust3" class="cluster">
<title>cluster_f2</title>
<path fill="#f3f7fa" stroke="#607d8b" stroke-width="1.6" d="M157,-8C157,-8 433,-8 433,-8 439,-8 445,-14 445,-20 445,-20 445,-805.82 445,-805.82 445,-811.82 439,-817.82 433,-817.82 433,-817.82 157,-817.82 157,-817.82 151,-817.82 145,-811.82 145,-805.82 145,-805.82 145,-20 145,-20 145,-14 151,-8 157,-8"/>
<text xml:space="preserve" text-anchor="start" x="153" y="-799.62" font-family="Helvetica,sans-Serif" font-weight="bold" font-size="16.00">branch_main</text>
</g>
<!-- f0_order -->
<!-- f1_order -->
<!-- f0_order&#45;&gt;f1_order -->
<!-- f2_order -->
<!-- f1_order&#45;&gt;f2_order -->
<!-- f2_entry -->
<g id="node4" class="node">
<title>f2_entry</title>
<ellipse fill="#81c784" stroke="#2e7d32" cx="255" cy="-760.83" rx="12.24" ry="12.24"/>
</g>
<!-- f2_bb0 -->
<g id="node5" class="node">
<title>f2_bb0</title>
<polygon fill="#edf7ee" stroke="none" points="168.88,-566.59 168.88,-663.09 341.12,-663.09 341.12,-566.59 168.88,-566.59"/>
<polygon fill="#c8e6c9" stroke="none" points="169.88,-630.59 169.88,-662.09 340.12,-662.09 340.12,-630.59 169.88,-630.59"/>
<text xml:space="preserve" text-anchor="start" x="175.88" y="-643.79" font-family="Menlo" font-weight="bold" font-size="14.00">bb0 [entry]</text>
<text xml:space="preserve" text-anchor="start" x="175.88" y="-609.59" font-family="Menlo" font-size="14.00">v0 = call cond_provider()</text>
<text xml:space="preserve" text-anchor="start" x="175.88" y="-578.09" font-family="Menlo" font-size="14.00">if v0 then bb1 else bb2</text>
<polygon fill="none" stroke="#455a64" points="168.88,-566.59 168.88,-663.09 341.12,-663.09 341.12,-566.59 168.88,-566.59"/>
</g>
<!-- f2_entry&#45;&gt;f2_bb0 -->
<g id="edge1" class="edge">
<title>f2_entry&#45;&gt;f2_bb0</title>
<path fill="none" stroke="#2e7d32" stroke-width="1.4" d="M255,-748.53C255,-732.59 255,-702.36 255,-674.78"/>
<polygon fill="#2e7d32" stroke="#2e7d32" stroke-width="1.4" points="258.5,-674.88 255,-664.88 251.5,-674.88 258.5,-674.88"/>
<text xml:space="preserve" text-anchor="middle" x="273" y="-702.29" font-family="Menlo" font-size="14.00">entry</text>
</g>
<!-- f2_bb1 -->
<g id="node6" class="node">
<title>f2_bb1</title>
<polygon fill="#f8fafb" stroke="none" points="163.5,-384.59 163.5,-481.09 282.5,-481.09 282.5,-384.59 163.5,-384.59"/>
<polygon fill="#eceff1" stroke="none" points="164.5,-448.59 164.5,-480.09 281.5,-480.09 281.5,-448.59 164.5,-448.59"/>
<text xml:space="preserve" text-anchor="start" x="170.5" y="-461.79" font-family="Menlo" font-weight="bold" font-size="14.00">bb1</text>
<text xml:space="preserve" text-anchor="start" x="170.5" y="-427.59" font-family="Menlo" font-size="14.00">v1 = call calc(v0)</text>
<text xml:space="preserve" text-anchor="start" x="170.5" y="-396.09" font-family="Menlo" font-size="14.00">goto bb3</text>
<polygon fill="none" stroke="#455a64" points="163.5,-384.59 163.5,-481.09 282.5,-481.09 282.5,-384.59 163.5,-384.59"/>
</g>
<!-- f2_bb0&#45;&gt;f2_bb1 -->
<g id="edge2" class="edge">
<title>f2_bb0&#45;&gt;f2_bb1</title>
<path fill="none" stroke="#2e7d32" stroke-width="1.3" d="M246.68,-567.01C242.63,-544.27 237.73,-516.72 233.44,-492.59"/>
<polygon fill="#2e7d32" stroke="#2e7d32" stroke-width="1.3" points="236.93,-492.22 231.74,-482.99 230.04,-493.44 236.93,-492.22"/>
<text xml:space="preserve" text-anchor="middle" x="243.71" y="-520.29" font-family="Menlo" font-size="14.00">T</text>
</g>
<!-- f2_bb2 -->
<g id="node7" class="node">
<title>f2_bb2</title>
<polygon fill="#f8fafb" stroke="none" points="307.5,-384.59 307.5,-481.09 426.5,-481.09 426.5,-384.59 307.5,-384.59"/>
<polygon fill="#eceff1" stroke="none" points="308.5,-448.59 308.5,-480.09 425.5,-480.09 425.5,-448.59 308.5,-448.59"/>
<text xml:space="preserve" text-anchor="start" x="314.5" y="-461.79" font-family="Menlo" font-weight="bold" font-size="14.00">bb2</text>
<text xml:space="preserve" text-anchor="start" x="314.5" y="-427.59" font-family="Menlo" font-size="14.00">v2 = call calc(v0)</text>
<text xml:space="preserve" text-anchor="start" x="314.5" y="-396.09" font-family="Menlo" font-size="14.00">goto bb3</text>
<polygon fill="none" stroke="#455a64" points="307.5,-384.59 307.5,-481.09 426.5,-481.09 426.5,-384.59 307.5,-384.59"/>
</g>
<!-- f2_bb0&#45;&gt;f2_bb2 -->
<g id="edge3" class="edge">
<title>f2_bb0&#45;&gt;f2_bb2</title>
<path fill="none" stroke="#c62828" stroke-width="1.3" d="M284.13,-567.01C298.6,-543.76 316.21,-515.46 331.46,-490.95"/>
<polygon fill="#c62828" stroke="#c62828" stroke-width="1.3" points="334.27,-493.06 336.58,-482.72 328.33,-489.36 334.27,-493.06"/>
<text xml:space="preserve" text-anchor="middle" x="318.11" y="-520.29" font-family="Menlo" font-size="14.00">F</text>
</g>
<!-- f2_bb3 -->
<g id="node8" class="node">
<title>f2_bb3</title>
<polygon fill="#fff8ef" stroke="none" points="201.38,-202.59 201.38,-299.09 370.62,-299.09 370.62,-202.59 201.38,-202.59"/>
<polygon fill="#ffe0b2" stroke="none" points="202.38,-266.59 202.38,-298.09 369.62,-298.09 369.62,-266.59 202.38,-266.59"/>
<text xml:space="preserve" text-anchor="start" x="208.38" y="-279.79" font-family="Menlo" font-weight="bold" font-size="14.00">bb3 [exit]</text>
<text xml:space="preserve" text-anchor="start" x="208.38" y="-245.59" font-family="Menlo" font-size="14.00">v3 = phi(bb2:v2, bb1:v1)</text>
<text xml:space="preserve" text-anchor="start" x="208.38" y="-214.09" font-family="Menlo" font-size="14.00">return v3</text>
<polygon fill="none" stroke="#455a64" points="201.38,-202.59 201.38,-299.09 370.62,-299.09 370.62,-202.59 201.38,-202.59"/>
</g>
<!-- f2_bb1&#45;&gt;f2_bb3 -->
<g id="edge4" class="edge">
<title>f2_bb1&#45;&gt;f2_bb3</title>
<path fill="none" stroke="#1565c0" d="M239.39,-385.01C247.45,-361.96 257.25,-333.97 265.78,-309.6"/>
<polygon fill="#1565c0" stroke="#1565c0" points="268.98,-311.07 268.98,-300.48 262.37,-308.76 268.98,-311.07"/>
<text xml:space="preserve" text-anchor="middle" x="271.39" y="-338.29" font-family="Menlo" font-size="14.00">goto</text>
</g>
<!-- f2_bb2&#45;&gt;f2_bb3 -->
<g id="edge5" class="edge">
<title>f2_bb2&#45;&gt;f2_bb3</title>
<path fill="none" stroke="#1565c0" d="M345.93,-385.01C335.51,-361.86 322.85,-333.71 311.85,-309.27"/>
<polygon fill="#1565c0" stroke="#1565c0" points="315.16,-308.11 307.87,-300.43 308.78,-310.98 315.16,-308.11"/>
<text xml:space="preserve" text-anchor="middle" x="343.93" y="-338.29" font-family="Menlo" font-size="14.00">goto</text>
</g>
<!-- f2_ret -->
<g id="node9" class="node">
<title>f2_ret</title>
<ellipse fill="none" stroke="#6a1b9a" stroke-width="1.4" cx="286" cy="-71.54" rx="41.54" ry="41.54"/>
<ellipse fill="none" stroke="#6a1b9a" stroke-width="1.4" cx="286" cy="-71.54" rx="45.54" ry="45.54"/>
<text xml:space="preserve" text-anchor="middle" x="286" y="-67.99" font-family="Menlo" font-size="14.00">return</text>
</g>
<!-- f2_bb3&#45;&gt;f2_ret -->
<g id="edge6" class="edge">
<title>f2_bb3&#45;&gt;f2_ret</title>
<path fill="none" stroke="#6a1b9a" stroke-dasharray="5,2" d="M286,-202.79C286,-180.13 286,-152.79 286,-129.01"/>
<polygon fill="#6a1b9a" stroke="#6a1b9a" points="289.5,-129.18 286,-119.18 282.5,-129.18 289.5,-129.18"/>
<text xml:space="preserve" text-anchor="middle" x="293.5" y="-156.29" font-family="Menlo" font-size="14.00">v3</text>
</g>
</g>
</svg>
