<?xml version="1.0" encoding="UTF-8" standalone="no"?>
<!DOCTYPE svg PUBLIC "-//W3C//DTD SVG 1.1//EN"
 "http://www.w3.org/Graphics/SVG/1.1/DTD/svg11.dtd">
<!-- Generated by graphviz version 14.1.5 (0)
 -->
<!-- Title: SSA Pages: 1 -->
<svg width="232pt" height="683pt"
 viewBox="0.00 0.00 232.00 683.00" xmlns="http://www.w3.org/2000/svg" xmlns:xlink="http://www.w3.org/1999/xlink">
<g id="graph0" class="graph" transform="scale(1 1) rotate(0) translate(4 679.32)">
<title>SSA</title>
<polygon fill="white" stroke="none" points="-4,4 -4,-679.32 228,-679.32 228,4 -4,4"/>
<g id="clust1" class="cluster">
<title>cluster_f0</title>
<path fill="#f3f7fa" stroke="#607d8b" stroke-width="1.6" d="M20,-8C20,-8 204,-8 204,-8 210,-8 216,-14 216,-20 216,-20 216,-655.32 216,-655.32 216,-661.32 210,-667.32 204,-667.32 204,-667.32 20,-667.32 20,-667.32 14,-667.32 8,-661.32 8,-655.32 8,-655.32 8,-20 8,-20 8,-14 14,-8 20,-8"/>
<text xml:space="preserve" text-anchor="start" x="16" y="-649.12" font-family="Helvetica,sans-Serif" font-weight="bold" font-size="16.00">const_main</text>
</g>
<!-- f0_order -->
<!-- f0_entry -->
<g id="node2" class="node">
<title>f0_entry</title>
<ellipse fill="#81c784" stroke="#2e7d32" cx="112" cy="-610.33" rx="12.24" ry="12.24"/>
</g>
<!-- f0_bb0 -->
<g id="node3" class="node">
<title>f0_bb0</title>
<polygon fill="#edf7ee" stroke="none" points="28.5,-384.59 28.5,-512.59 195.5,-512.59 195.5,-384.59 28.5,-384.59"/>
<polygon fill="#c8e6c9" stroke="none" points="29.5,-480.09 29.5,-511.59 194.5,-511.59 194.5,-480.09 29.5,-480.09"/>
<text xml:space="preserve" text-anchor="start" x="35.5" y="-493.29" font-family="Menlo" font-weight="bold" font-size="14.00">bb0 [entry]</text>
<text xml:space="preserve" text-anchor="start" x="35.5" y="-459.09" font-family="Menlo" font-size="14.00">v0 = const 42</text>
<text xml:space="preserve" text-anchor="start" x="35.5" y="-427.59" font-family="Menlo" font-size="14.00">v1 = const 2147483647</text>
<text xml:space="preserve" text-anchor="start" x="35.5" y="-396.09" font-family="Menlo" font-size="14.00">goto bb1</text>
<polygon fill="none" stroke="#455a64" points="28.5,-384.59 28.5,-512.59 195.5,-512.59 195.5,-384.59 28.5,-384.59"/>
</g>
<!-- f0_entry&#45;&gt;f0_bb0 -->
<g id="edge1" class="edge">
<title>f0_entry&#45;&gt;f0_bb0</title>
<path fill="none" stroke="#2e7d32" stroke-width="1.4" d="M112,-597.84C112,-582.19 112,-552.85 112,-524.38"/>
<polygon fill="#2e7d32" stroke="#2e7d32" stroke-width="1.4" points="115.5,-524.39 112,-514.39 108.5,-524.39 115.5,-524.39"/>
<text xml:space="preserve" text-anchor="middle" x="130" y="-551.79" font-family="Menlo" font-size="14.00">entry</text>
</g>
<!-- f0_bb1 -->
<g id="node4" class="node">
<title>f0_bb1</title>
<polygon fill="#fff8ef" stroke="none" points="26.25,-202.59 26.25,-299.09 197.75,-299.09 197.75,-202.59 26.25,-202.59"/>
<polygon fill="#ffe0b2" stroke="none" points="27.25,-266.59 27.25,-298.09 196.75,-298.09 196.75,-266.59 27.25,-266.59"/>
<text xml:space="preserve" text-anchor="start" x="33.25" y="-279.79" font-family="Menlo" font-weight="bold" font-size="14.00">bb1 [exit]</text>
<text xml:space="preserve" text-anchor="start" x="33.25" y="-245.59" font-family="Menlo" font-size="14.00">v2 = const &#45;2147483648</text>
<text xml:space="preserve" text-anchor="start" x="33.25" y="-214.09" font-family="Menlo" font-size="14.00">return v2</text>
<polygon fill="none" stroke="#455a64" points="26.25,-202.59 26.25,-299.09 197.75,-299.09 197.75,-202.59 26.25,-202.59"/>
</g>
<!-- f0_bb0&#45;&gt;f0_bb1 -->
<g id="edge2" class="edge">
<title>f0_bb0&#45;&gt;f0_bb1</title>
<path fill="none" stroke="#1565c0" d="M112,-384.84C112,-360.91 112,-333.75 112,-310.24"/>
<polygon fill="#1565c0" stroke="#1565c0" points="115.5,-310.54 112,-300.54 108.5,-310.54 115.5,-310.54"/>
<text xml:space="preserve" text-anchor="middle" x="127" y="-338.29" font-family="Menlo" font-size="14.00">goto</text>
</g>
<!-- f0_ret -->
<g id="node5" class="node">
<title>f0_ret</title>
<ellipse fill="none" stroke="#6a1b9a" stroke-width="1.4" cx="112" cy="-71.54" rx="41.54" ry="41.54"/>
<ellipse fill="none" stroke="#6a1b9a" stroke-width="1.4" cx="112" cy="-71.54" rx="45.54" ry="45.54"/>
<text xml:space="preserve" text-anchor="middle" x="112" y="-67.99" font-family="Menlo" font-size="14.00">return</text>
</g>
<!-- f0_bb1&#45;&gt;f0_ret -->
<g id="edge3" class="edge">
<title>f0_bb1&#45;&gt;f0_ret</title>
<path fill="none" stroke="#6a1b9a" stroke-dasharray="5,2" d="M112,-202.79C112,-180.13 112,-152.79 112,-129.01"/>
<polygon fill="#6a1b9a" stroke="#6a1b9a" points="115.5,-129.18 112,-119.18 108.5,-129.18 115.5,-129.18"/>
<text xml:space="preserve" text-anchor="middle" x="119.5" y="-156.29" font-family="Menlo" font-size="14.00">v2</text>
</g>
</g>
</svg>
