<?xml version="1.0" encoding="UTF-8" standalone="no"?>
<!DOCTYPE svg PUBLIC "-//W3C//DTD SVG 1.1//EN"
 "http://www.w3.org/Graphics/SVG/1.1/DTD/svg11.dtd">
<!-- Generated by graphviz version 14.1.5 (0)
 -->
<!-- Title: SSA Pages: 1 -->
<svg width="351pt" height="802pt"
 viewBox="0.00 0.00 351.00 802.00" xmlns="http://www.w3.org/2000/svg" xmlns:xlink="http://www.w3.org/1999/xlink">
<g id="graph0" class="graph" transform="scale(1 1) rotate(0) translate(4 798.29)">
<title>SSA</title>
<polygon fill="white" stroke="none" points="-4,4 -4,-798.29 347,-798.29 347,4 -4,4"/>
<g id="clust1" class="cluster">
<title>cluster_f0</title>
<path fill="#f3f7fa" stroke="#607d8b" stroke-width="1.6" d="M20,-95.47C20,-95.47 222,-95.47 222,-95.47 228,-95.47 234,-101.47 234,-107.47 234,-107.47 234,-774.29 234,-774.29 234,-780.29 228,-786.29 222,-786.29 222,-786.29 20,-786.29 20,-786.29 14,-786.29 8,-780.29 8,-774.29 8,-774.29 8,-107.47 8,-107.47 8,-101.47 14,-95.47 20,-95.47"/>
<text xml:space="preserve" text-anchor="start" x="16" y="-768.09" font-family="Helvetica,sans-Serif" font-weight="bold" font-size="16.00">invalid_case</text>
</g>
<g id="clust2" class="cluster">
<title>cluster_f1</title>
<path fill="#f3f7fa" stroke="#607d8b" stroke-width="1.6" d="M256,-319.95C256,-319.95 321,-319.95 321,-319.95 327,-319.95 333,-325.95 333,-331.95 333,-331.95 333,-371.42 333,-371.42 333,-377.42 327,-383.42 321,-383.42 321,-383.42 256,-383.42 256,-383.42 250,-383.42 244,-377.42 244,-371.42 244,-371.42 244,-331.95 244,-331.95 244,-325.95 250,-319.95 256,-319.95"/>
<text xml:space="preserve" text-anchor="start" x="252" y="-365.22" font-family="Helvetica,sans-Serif" font-weight="bold" font-size="16.00">takes_i32</text>
</g>
<g id="clust3" class="cluster">
<title>cluster_f2</title>
<path fill="#f3f7fa" stroke="#607d8b" stroke-width="1.6" d="M257,-8C257,-8 323,-8 323,-8 329,-8 335,-14 335,-20 335,-20 335,-59.47 335,-59.47 335,-65.47 329,-71.47 323,-71.47 323,-71.47 257,-71.47 257,-71.47 251,-71.47 245,-65.47 245,-59.47 245,-59.47 245,-20 245,-20 245,-14 251,-8 257,-8"/>
<text xml:space="preserve" text-anchor="start" x="253" y="-53.27" font-family="Helvetica,sans-Serif" font-weight="bold" font-size="16.00">void_sink</text>
</g>
<!-- f0_order -->
<!-- f1_order -->
<!-- f0_order&#45;&gt;f1_order -->
<!-- f0_entry -->
<g id="node2" class="node">
<title>f0_entry</title>
<ellipse fill="#81c784" stroke="#2e7d32" cx="108" cy="-729.3" rx="12.24" ry="12.24"/>
</g>
<!-- f0_bb0 -->
<g id="node3" class="node">
<title>f0_bb0</title>
<polygon fill="#edf7ee" stroke="none" points="26,-472.06 26,-631.56 190,-631.56 190,-472.06 26,-472.06"/>
<polygon fill="#c8e6c9" stroke="none" points="27,-599.06 27,-630.56 189,-630.56 189,-599.06 27,-599.06"/>
<text xml:space="preserve" text-anchor="start" x="33" y="-612.26" font-family="Menlo" font-weight="bold" font-size="14.00">bb0 [entry]</text>
<text xml:space="preserve" text-anchor="start" x="33" y="-578.06" font-family="Menlo" font-size="14.00">v0 = const 7</text>
<text xml:space="preserve" text-anchor="start" x="33" y="-546.56" font-family="Menlo" font-size="14.00">call void_sink()</text>
<text xml:space="preserve" text-anchor="start" x="33" y="-515.06" font-family="Menlo" font-size="14.00">v1 = call invalid_case()</text>
<text xml:space="preserve" text-anchor="start" x="33" y="-483.56" font-family="Menlo" font-size="14.00">if v1 then bb0 else bb1</text>
<polygon fill="none" stroke="#455a64" points="26,-472.06 26,-631.56 190,-631.56 190,-472.06 26,-472.06"/>
</g>
<!-- f0_entry&#45;&gt;f0_bb0 -->
<g id="edge1" class="edge">
<title>f0_entry&#45;&gt;f0_bb0</title>
<path fill="none" stroke="#2e7d32" stroke-width="1.4" d="M108,-716.78C108,-701.37 108,-672.56 108,-643.35"/>
<polygon fill="#2e7d32" stroke="#2e7d32" stroke-width="1.4" points="111.5,-643.4 108,-633.4 104.5,-643.4 111.5,-643.4"/>
<text xml:space="preserve" text-anchor="middle" x="126" y="-670.76" font-family="Menlo" font-size="14.00">entry</text>
</g>
<!-- f0_bb0&#45;&gt;f0_bb0 -->
<g id="edge2" class="edge">
<title>f0_bb0&#45;&gt;f0_bb0</title>
<path fill="none" stroke="#2e7d32" stroke-width="1.3" d="M189.64,-573.51C204.55,-570.76 215,-563.53 215,-551.81 215,-543.38 209.6,-537.27 201.03,-533.48"/>
<polygon fill="#2e7d32" stroke="#2e7d32" stroke-width="1.3" points="202.11,-530.15 191.53,-530.66 200.12,-536.86 202.11,-530.15"/>
<text xml:space="preserve" text-anchor="middle" x="218.75" y="-548.26" font-family="Menlo" font-size="14.00">T</text>
</g>
<!-- f0_bb1 -->
<g id="node4" class="node">
<title>f0_bb1</title>
<polygon fill="#fff8ef" stroke="none" points="29.38,-290.06 29.38,-386.56 186.62,-386.56 186.62,-290.06 29.38,-290.06"/>
<polygon fill="#ffe0b2" stroke="none" points="30.38,-354.06 30.38,-385.56 185.62,-385.56 185.62,-354.06 30.38,-354.06"/>
<text xml:space="preserve" text-anchor="start" x="36.38" y="-367.26" font-family="Menlo" font-weight="bold" font-size="14.00">bb1 [exit]</text>
<text xml:space="preserve" text-anchor="start" x="36.38" y="-333.06" font-family="Menlo" font-size="14.00">v2 = call invalid_case()</text>
<text xml:space="preserve" text-anchor="start" x="36.38" y="-301.56" font-family="Menlo" font-size="14.00">return v2</text>
<polygon fill="none" stroke="#455a64" points="29.38,-290.06 29.38,-386.56 186.62,-386.56 186.62,-290.06 29.38,-290.06"/>
</g>
<!-- f0_bb0&#45;&gt;f0_bb1 -->
<g id="edge3" class="edge">
<title>f0_bb0&#45;&gt;f0_bb1</title>
<path fill="none" stroke="#c62828" stroke-width="1.3" d="M108,-472.35C108,-447.72 108,-420.98 108,-397.97"/>
<polygon fill="#c62828" stroke="#c62828" stroke-width="1.3" points="111.5,-398.27 108,-388.27 104.5,-398.27 111.5,-398.27"/>
<text xml:space="preserve" text-anchor="middle" x="111.75" y="-425.76" font-family="Menlo" font-size="14.00">F</text>
</g>
<!-- f0_ret -->
<g id="node5" class="node">
<title>f0_ret</title>
<ellipse fill="none" stroke="#6a1b9a" stroke-width="1.4" cx="108" cy="-159.01" rx="41.54" ry="41.54"/>
<ellipse fill="none" stroke="#6a1b9a" stroke-width="1.4" cx="108" cy="-159.01" rx="45.54" ry="45.54"/>
<text xml:space="preserve" text-anchor="middle" x="108" y="-155.46" font-family="Menlo" font-size="14.00">return</text>
</g>
<!-- f0_bb1&#45;&gt;f0_ret -->
<g id="edge4" class="edge">
<title>f0_bb1&#45;&gt;f0_ret</title>
<path fill="none" stroke="#6a1b9a" stroke-dasharray="5,2" d="M108,-290.26C108,-267.6 108,-240.26 108,-216.48"/>
<polygon fill="#6a1b9a" stroke="#6a1b9a" points="111.5,-216.65 108,-206.65 104.5,-216.65 111.5,-216.65"/>
<text xml:space="preserve" text-anchor="middle" x="115.5" y="-243.76" font-family="Menlo" font-size="14.00">v2</text>
</g>
<!-- f2_order -->
<!-- f1_order&#45;&gt;f2_order -->
</g>
</svg>
