<?xml version="1.0" encoding="UTF-8" standalone="no"?>
<!DOCTYPE svg PUBLIC "-//W3C//DTD SVG 1.1//EN"
 "http://www.w3.org/Graphics/SVG/1.1/DTD/svg11.dtd">
<!-- Generated by graphviz version 14.1.5 (0)
 -->
<!-- Title: SSA Pages: 1 -->
<svg width="295pt" height="620pt"
 viewBox="0.00 0.00 295.00 620.00" xmlns="http://www.w3.org/2000/svg" xmlns:xlink="http://www.w3.org/1999/xlink">
<g id="graph0" class="graph" transform="scale(1 1) rotate(0) translate(4 616.32)">
<title>SSA</title>
<polygon fill="white" stroke="none" points="-4,4 -4,-616.32 291,-616.32 291,4 -4,4"/>
<g id="clust1" class="cluster">
<title>cluster_f0</title>
<path fill="#f3f7fa" stroke="#607d8b" stroke-width="1.6" d="M20,-528.97C20,-528.97 57,-528.97 57,-528.97 63,-528.97 69,-534.97 69,-540.97 69,-540.97 69,-580.44 69,-580.44 69,-586.44 63,-592.44 57,-592.44 57,-592.44 20,-592.44 20,-592.44 14,-592.44 8,-586.44 8,-580.44 8,-580.44 8,-540.97 8,-540.97 8,-534.97 14,-528.97 20,-528.97"/>
<text xml:space="preserve" text-anchor="start" x="16" y="-574.24" font-family="Helvetica,sans-Serif" font-weight="bold" font-size="16.00">callee</text>
</g>
<g id="clust2" class="cluster">
<title>cluster_f1</title>
<path fill="#f3f7fa" stroke="#607d8b" stroke-width="1.6" d="M89,-8C89,-8 267,-8 267,-8 273,-8 279,-14 279,-20 279,-20 279,-592.32 279,-592.32 279,-598.32 273,-604.32 267,-604.32 267,-604.32 89,-604.32 89,-604.32 83,-604.32 77,-598.32 77,-592.32 77,-592.32 77,-20 77,-20 77,-14 83,-8 89,-8"/>
<text xml:space="preserve" text-anchor="start" x="85" y="-586.12" font-family="Helvetica,sans-Serif" font-weight="bold" font-size="16.00">main</text>
</g>
<!-- f0_order -->
<!-- f1_order -->
<!-- f0_order&#45;&gt;f1_order -->
<!-- f1_entry -->
<g id="node3" class="node">
<title>f1_entry</title>
<ellipse fill="#81c784" stroke="#2e7d32" cx="178" cy="-547.33" rx="12.24" ry="12.24"/>
</g>
<!-- f1_bb0 -->
<g id="node4" class="node">
<title>f1_bb0</title>
<polygon fill="#edf7ee" stroke="none" points="94.88,-353.09 94.88,-449.59 261.12,-449.59 261.12,-353.09 94.88,-353.09"/>
<polygon fill="#c8e6c9" stroke="none" points="95.88,-417.09 95.88,-448.59 260.12,-448.59 260.12,-417.09 95.88,-417.09"/>
<text xml:space="preserve" text-anchor="start" x="101.88" y="-430.29" font-family="Menlo" font-weight="bold" font-size="14.00">bb0 [entry]</text>
<text xml:space="preserve" text-anchor="start" x="101.88" y="-396.09" font-family="Menlo" font-size="14.00">v0 = call callee() [const]</text>
<text xml:space="preserve" text-anchor="start" x="101.88" y="-364.59" font-family="Menlo" font-size="14.00">goto bb1</text>
<polygon fill="none" stroke="#455a64" points="94.88,-353.09 94.88,-449.59 261.12,-449.59 261.12,-353.09 94.88,-353.09"/>
</g>
<!-- f1_entry&#45;&gt;f1_bb0 -->
<g id="edge1" class="edge">
<title>f1_entry&#45;&gt;f1_bb0</title>
<path fill="none" stroke="#2e7d32" stroke-width="1.4" d="M178,-535.03C178,-519.09 178,-488.86 178,-461.28"/>
<polygon fill="#2e7d32" stroke="#2e7d32" stroke-width="1.4" points="181.5,-461.38 178,-451.38 174.5,-461.38 181.5,-461.38"/>
<text xml:space="preserve" text-anchor="middle" x="196" y="-488.79" font-family="Menlo" font-size="14.00">entry</text>
</g>
<!-- f1_bb1 -->
<g id="node5" class="node">
<title>f1_bb1</title>
<polygon fill="#fff8ef" stroke="none" points="138,-202.59 138,-267.59 218,-267.59 218,-202.59 138,-202.59"/>
<polygon fill="#ffe0b2" stroke="none" points="139,-235.09 139,-266.59 217,-266.59 217,-235.09 139,-235.09"/>
<text xml:space="preserve" text-anchor="start" x="145" y="-248.29" font-family="Menlo" font-weight="bold" font-size="14.00">bb1 [exit]</text>
<text xml:space="preserve" text-anchor="start" x="145" y="-214.09" font-family="Menlo" font-size="14.00">return v0</text>
<polygon fill="none" stroke="#455a64" points="138,-202.59 138,-267.59 218,-267.59 218,-202.59 138,-202.59"/>
</g>
<!-- f1_bb0&#45;&gt;f1_bb1 -->
<g id="edge2" class="edge">
<title>f1_bb0&#45;&gt;f1_bb1</title>
<path fill="none" stroke="#1565c0" d="M178,-353.27C178,-329.86 178,-301.77 178,-278.96"/>
<polygon fill="#1565c0" stroke="#1565c0" points="181.5,-279.08 178,-269.08 174.5,-279.08 181.5,-279.08"/>
<text xml:space="preserve" text-anchor="middle" x="193" y="-306.79" font-family="Menlo" font-size="14.00">goto</text>
</g>
<!-- f1_ret -->
<g id="node6" class="node">
<title>f1_ret</title>
<ellipse fill="none" stroke="#6a1b9a" stroke-width="1.4" cx="178" cy="-71.54" rx="41.54" ry="41.54"/>
<ellipse fill="none" stroke="#6a1b9a" stroke-width="1.4" cx="178" cy="-71.54" rx="45.54" ry="45.54"/>
<text xml:space="preserve" text-anchor="middle" x="178" y="-67.99" font-family="Menlo" font-size="14.00">return</text>
</g>
<!-- f1_bb1&#45;&gt;f1_ret -->
<g id="edge3" class="edge">
<title>f1_bb1&#45;&gt;f1_ret</title>
<path fill="none" stroke="#6a1b9a" stroke-dasharray="5,2" d="M178,-202.94C178,-182.04 178,-153.91 178,-129.13"/>
<polygon fill="#6a1b9a" stroke="#6a1b9a" points="181.5,-129.16 178,-119.16 174.5,-129.16 181.5,-129.16"/>
<text xml:space="preserve" text-anchor="middle" x="185.5" y="-156.29" font-family="Menlo" font-size="14.00">v0</text>
</g>
</g>
</svg>
