<?xml version="1.0" encoding="UTF-8" standalone="no"?>
<!DOCTYPE svg PUBLIC "-//W3C//DTD SVG 1.1//EN"
 "http://www.w3.org/Graphics/SVG/1.1/DTD/svg11.dtd">
<!-- Generated by graphviz version 14.1.5 (0)
 -->
<!-- Title: SSA Pages: 1 -->
<svg width="152pt" height="589pt"
 viewBox="0.00 0.00 152.00 589.00" xmlns="http://www.w3.org/2000/svg" xmlns:xlink="http://www.w3.org/1999/xlink">
<g id="graph0" class="graph" transform="scale(1 1) rotate(0) translate(4 584.82)">
<title>SSA</title>
<polygon fill="white" stroke="none" points="-4,4 -4,-584.82 148,-584.82 148,4 -4,4"/>
<g id="clust1" class="cluster">
<title>cluster_f0</title>
<path fill="#f3f7fa" stroke="#607d8b" stroke-width="1.6" d="M20,-8C20,-8 124,-8 124,-8 130,-8 136,-14 136,-20 136,-20 136,-560.82 136,-560.82 136,-566.82 130,-572.82 124,-572.82 124,-572.82 20,-572.82 20,-572.82 14,-572.82 8,-566.82 8,-560.82 8,-560.82 8,-20 8,-20 8,-14 14,-8 20,-8"/>
<text xml:space="preserve" text-anchor="start" x="16" y="-554.62" font-family="Helvetica,sans-Serif" font-weight="bold" font-size="16.00">void_main</text>
</g>
<!-- f0_order -->
<!-- f0_entry -->
<g id="node2" class="node">
<title>f0_entry</title>
<ellipse fill="#81c784" stroke="#2e7d32" cx="72" cy="-515.83" rx="12.24" ry="12.24"/>
</g>
<!-- f0_bb0 -->
<g id="node3" class="node">
<title>f0_bb0</title>
<polygon fill="#edf7ee" stroke="none" points="26.75,-353.09 26.75,-418.09 117.25,-418.09 117.25,-353.09 26.75,-353.09"/>
<polygon fill="#c8e6c9" stroke="none" points="27.75,-385.59 27.75,-417.09 116.25,-417.09 116.25,-385.59 27.75,-385.59"/>
<text xml:space="preserve" text-anchor="start" x="33.75" y="-398.79" font-family="Menlo" font-weight="bold" font-size="14.00">bb0 [entry]</text>
<text xml:space="preserve" text-anchor="start" x="33.75" y="-364.59" font-family="Menlo" font-size="14.00">goto bb1</text>
<polygon fill="none" stroke="#455a64" points="26.75,-353.09 26.75,-418.09 117.25,-418.09 117.25,-353.09 26.75,-353.09"/>
</g>
<!-- f0_entry&#45;&gt;f0_bb0 -->
<g id="edge1" class="edge">
<title>f0_entry&#45;&gt;f0_bb0</title>
<path fill="none" stroke="#2e7d32" stroke-width="1.4" d="M72,-503.44C72,-487.04 72,-455.86 72,-429.83"/>
<polygon fill="#2e7d32" stroke="#2e7d32" stroke-width="1.4" points="75.5,-430.05 72,-420.05 68.5,-430.05 75.5,-430.05"/>
<text xml:space="preserve" text-anchor="middle" x="90" y="-457.29" font-family="Menlo" font-size="14.00">entry</text>
</g>
<!-- f0_bb1 -->
<g id="node4" class="node">
<title>f0_bb1</title>
<polygon fill="#fff8ef" stroke="none" points="32,-202.59 32,-267.59 112,-267.59 112,-202.59 32,-202.59"/>
<polygon fill="#ffe0b2" stroke="none" points="33,-235.09 33,-266.59 111,-266.59 111,-235.09 33,-235.09"/>
<text xml:space="preserve" text-anchor="start" x="39" y="-248.29" font-family="Menlo" font-weight="bold" font-size="14.00">bb1 [exit]</text>
<text xml:space="preserve" text-anchor="start" x="39" y="-214.09" font-family="Menlo" font-size="14.00">return nil</text>
<polygon fill="none" stroke="#455a64" points="32,-202.59 32,-267.59 112,-267.59 112,-202.59 32,-202.59"/>
</g>
<!-- f0_bb0&#45;&gt;f0_bb1 -->
<g id="edge2" class="edge">
<title>f0_bb0&#45;&gt;f0_bb1</title>
<path fill="none" stroke="#1565c0" d="M72,-353.09C72,-331.53 72,-302.68 72,-279.02"/>
<polygon fill="#1565c0" stroke="#1565c0" points="75.5,-279.05 72,-269.05 68.5,-279.05 75.5,-279.05"/>
<text xml:space="preserve" text-anchor="middle" x="87" y="-306.79" font-family="Menlo" font-size="14.00">goto</text>
</g>
<!-- f0_ret -->
<g id="node5" class="node">
<title>f0_ret</title>
<ellipse fill="none" stroke="#6a1b9a" stroke-width="1.4" cx="72" cy="-71.54" rx="41.54" ry="41.54"/>
<ellipse fill="none" stroke="#6a1b9a" stroke-width="1.4" cx="72" cy="-71.54" rx="45.54" ry="45.54"/>
<text xml:space="preserve" text-anchor="middle" x="72" y="-67.99" font-family="Menlo" font-size="14.00">return</text>
</g>
<!-- f0_bb1&#45;&gt;f0_ret -->
<g id="edge3" class="edge">
<title>f0_bb1&#45;&gt;f0_ret</title>
<path fill="none" stroke="#6a1b9a" stroke-dasharray="5,2" d="M72,-202.94C72,-182.04 72,-153.91 72,-129.13"/>
<polygon fill="#6a1b9a" stroke="#6a1b9a" points="75.5,-129.16 72,-119.16 68.5,-129.16 75.5,-129.16"/>
<text xml:space="preserve" text-anchor="middle" x="80.25" y="-156.29" font-family="Menlo" font-size="14.00">nil</text>
</g>
</g>
</svg>
