<?xml version="1.0" encoding="UTF-8" standalone="no"?>
<!DOCTYPE svg PUBLIC "-//W3C//DTD SVG 1.1//EN"
 "http://www.w3.org/Graphics/SVG/1.1/DTD/svg11.dtd">
<!-- Generated by graphviz version 14.1.5 (0)
 -->
<!-- Title: SSA Pages: 1 -->
<svg width="768pt" height="2793pt"
 viewBox="0.00 0.00 768.00 2793.00" xmlns="http://www.w3.org/2000/svg" xmlns:xlink="http://www.w3.org/1999/xlink">
<g id="graph0" class="graph" transform="scale(1 1) rotate(0) translate(4 2789.31)">
<title>SSA</title>
<polygon fill="white" stroke="none" points="-4,4 -4,-2789.31 764,-2789.31 764,4 -4,4"/>
<g id="clust1" class="cluster">
<title>cluster_f0</title>
<path fill="#f3f7fa" stroke="#607d8b" stroke-width="1.6" d="M61,-2701.96C61,-2701.96 73,-2701.96 73,-2701.96 79,-2701.96 85,-2707.96 85,-2713.96 85,-2713.96 85,-2753.43 85,-2753.43 85,-2759.43 79,-2765.43 73,-2765.43 73,-2765.43 61,-2765.43 61,-2765.43 55,-2765.43 49,-2759.43 49,-2753.43 49,-2753.43 49,-2713.96 49,-2713.96 49,-2707.96 55,-2701.96 61,-2701.96"/>
<text xml:space="preserve" text-anchor="start" x="57" y="-2747.23" font-family="Helvetica,sans-Serif" font-weight="bold" font-size="16.00">+</text>
</g>
<g id="clust2" class="cluster">
<title>cluster_f1</title>
<path fill="#f3f7fa" stroke="#607d8b" stroke-width="1.6" d="M61,-2263.72C61,-2263.72 73,-2263.72 73,-2263.72 79,-2263.72 85,-2269.72 85,-2275.72 85,-2275.72 85,-2315.19 85,-2315.19 85,-2321.19 79,-2327.19 73,-2327.19 73,-2327.19 61,-2327.19 61,-2327.19 55,-2327.19 49,-2321.19 49,-2315.19 49,-2315.19 49,-2275.72 49,-2275.72 49,-2269.72 55,-2263.72 61,-2263.72"/>
<text xml:space="preserve" text-anchor="start" x="57" y="-2308.99" font-family="Helvetica,sans-Serif" font-weight="bold" font-size="16.00">&#45;</text>
</g>
<g id="clust3" class="cluster">
<title>cluster_f2</title>
<path fill="#f3f7fa" stroke="#607d8b" stroke-width="1.6" d="M61,-1743.97C61,-1743.97 73,-1743.97 73,-1743.97 79,-1743.97 85,-1749.97 85,-1755.97 85,-1755.97 85,-1795.44 85,-1795.44 85,-1801.44 79,-1807.44 73,-1807.44 73,-1807.44 61,-1807.44 61,-1807.44 55,-1807.44 49,-1801.44 49,-1795.44 49,-1795.44 49,-1755.97 49,-1755.97 49,-1749.97 55,-1743.97 61,-1743.97"/>
<text xml:space="preserve" text-anchor="start" x="57" y="-1789.24" font-family="Helvetica,sans-Serif" font-weight="bold" font-size="16.00">*</text>
</g>
<g id="clust4" class="cluster">
<title>cluster_f3</title>
<path fill="#f3f7fa" stroke="#607d8b" stroke-width="1.6" d="M61,-1414.17C61,-1414.17 73,-1414.17 73,-1414.17 79,-1414.17 85,-1420.17 85,-1426.17 85,-1426.17 85,-1465.64 85,-1465.64 85,-1471.64 79,-1477.64 73,-1477.64 73,-1477.64 61,-1477.64 61,-1477.64 55,-1477.64 49,-1471.64 49,-1465.64 49,-1465.64 49,-1426.17 49,-1426.17 49,-1420.17 55,-1414.17 61,-1414.17"/>
<text xml:space="preserve" text-anchor="start" x="57" y="-1459.44" font-family="Helvetica,sans-Serif" font-weight="bold" font-size="16.00">/</text>
</g>
<g id="clust5" class="cluster">
<title>cluster_f4</title>
<path fill="#f3f7fa" stroke="#607d8b" stroke-width="1.6" d="M61,-1213.52C61,-1213.52 73,-1213.52 73,-1213.52 79,-1213.52 85,-1219.52 85,-1225.52 85,-1225.52 85,-1264.99 85,-1264.99 85,-1270.99 79,-1276.99 73,-1276.99 73,-1276.99 61,-1276.99 61,-1276.99 55,-1276.99 49,-1270.99 49,-1264.99 49,-1264.99 49,-1225.52 49,-1225.52 49,-1219.52 55,-1213.52 61,-1213.52"/>
<text xml:space="preserve" text-anchor="start" x="57" y="-1258.79" font-family="Helvetica,sans-Serif" font-weight="bold" font-size="16.00">&gt;</text>
</g>
<g id="clust6" class="cluster">
<title>cluster_f5</title>
<path fill="#f3f7fa" stroke="#607d8b" stroke-width="1.6" d="M61,-1057.91C61,-1057.91 73,-1057.91 73,-1057.91 79,-1057.91 85,-1063.91 85,-1069.91 85,-1069.91 85,-1109.38 85,-1109.38 85,-1115.38 79,-1121.38 73,-1121.38 73,-1121.38 61,-1121.38 61,-1121.38 55,-1121.38 49,-1115.38 49,-1109.38 49,-1109.38 49,-1069.91 49,-1069.91 49,-1063.91 55,-1057.91 61,-1057.91"/>
<text xml:space="preserve" text-anchor="start" x="57" y="-1103.18" font-family="Helvetica,sans-Serif" font-weight="bold" font-size="16.00">&lt;</text>
</g>
<g id="clust7" class="cluster">
<title>cluster_f6</title>
<path fill="#f3f7fa" stroke="#607d8b" stroke-width="1.6" d="M61,-902.3C61,-902.3 73,-902.3 73,-902.3 79,-902.3 85,-908.3 85,-914.3 85,-914.3 85,-953.77 85,-953.77 85,-959.77 79,-965.77 73,-965.77 73,-965.77 61,-965.77 61,-965.77 55,-965.77 49,-959.77 49,-953.77 49,-953.77 49,-914.3 49,-914.3 49,-908.3 55,-902.3 61,-902.3"/>
<text xml:space="preserve" text-anchor="start" x="57" y="-947.57" font-family="Helvetica,sans-Serif" font-weight="bold" font-size="16.00">=</text>
</g>
<g id="clust8" class="cluster">
<title>cluster_f7</title>
<path fill="#f3f7fa" stroke="#607d8b" stroke-width="1.6" d="M46,-746.69C46,-746.69 76,-746.69 76,-746.69 82,-746.69 88,-752.69 88,-758.69 88,-758.69 88,-798.16 88,-798.16 88,-804.16 82,-810.16 76,-810.16 76,-810.16 46,-810.16 46,-810.16 40,-810.16 34,-804.16 34,-798.16 34,-798.16 34,-758.69 34,-758.69 34,-752.69 40,-746.69 46,-746.69"/>
<text xml:space="preserve" text-anchor="start" x="42" y="-791.96" font-family="Helvetica,sans-Serif" font-weight="bold" font-size="16.00">cons</text>
</g>
<g id="clust9" class="cluster">
<title>cluster_f8</title>
<path fill="#f3f7fa" stroke="#607d8b" stroke-width="1.6" d="M20,-591.08C20,-591.08 76,-591.08 76,-591.08 82,-591.08 88,-597.08 88,-603.08 88,-603.08 88,-642.55 88,-642.55 88,-648.55 82,-654.55 76,-654.55 76,-654.55 20,-654.55 20,-654.55 14,-654.55 8,-648.55 8,-642.55 8,-642.55 8,-603.08 8,-603.08 8,-597.08 14,-591.08 20,-591.08"/>
<text xml:space="preserve" text-anchor="start" x="16" y="-636.35" font-family="Helvetica,sans-Serif" font-weight="bold" font-size="16.00">print_int</text>
</g>
<g id="clust10" class="cluster">
<title>cluster_f9</title>
<path fill="#f3f7fa" stroke="#607d8b" stroke-width="1.6" d="M59,-435.47C59,-435.47 75,-435.47 75,-435.47 81,-435.47 87,-441.47 87,-447.47 87,-447.47 87,-486.94 87,-486.94 87,-492.94 81,-498.94 75,-498.94 75,-498.94 59,-498.94 59,-498.94 53,-498.94 47,-492.94 47,-486.94 47,-486.94 47,-447.47 47,-447.47 47,-441.47 53,-435.47 59,-435.47"/>
<text xml:space="preserve" text-anchor="start" x="55" y="-480.74" font-family="Helvetica,sans-Serif" font-weight="bold" font-size="16.00">car</text>
</g>
<g id="clust11" class="cluster">
<title>cluster_f10</title>
<path fill="#f3f7fa" stroke="#607d8b" stroke-width="1.6" d="M59,-279.86C59,-279.86 76,-279.86 76,-279.86 82,-279.86 88,-285.86 88,-291.86 88,-291.86 88,-331.33 88,-331.33 88,-337.33 82,-343.33 76,-343.33 76,-343.33 59,-343.33 59,-343.33 53,-343.33 47,-337.33 47,-331.33 47,-331.33 47,-291.86 47,-291.86 47,-285.86 53,-279.86 59,-279.86"/>
<text xml:space="preserve" text-anchor="start" x="55" y="-325.13" font-family="Helvetica,sans-Serif" font-weight="bold" font-size="16.00">cdr</text>
</g>
<g id="clust12" class="cluster">
<title>cluster_f11</title>
<path fill="#f3f7fa" stroke="#607d8b" stroke-width="1.6" d="M110,-143.86C110,-143.86 506,-143.86 506,-143.86 512,-143.86 518,-149.86 518,-155.86 518,-155.86 518,-2765.31 518,-2765.31 518,-2771.31 512,-2777.31 506,-2777.31 506,-2777.31 110,-2777.31 110,-2777.31 104,-2777.31 98,-2771.31 98,-2765.31 98,-2765.31 98,-155.86 98,-155.86 98,-149.86 104,-143.86 110,-143.86"/>
<text xml:space="preserve" text-anchor="start" x="106" y="-2759.11" font-family="Helvetica,sans-Serif" font-weight="bold" font-size="16.00">heavy_sum</text>
</g>
<g id="clust13" class="cluster">
<title>cluster_f12</title>
<path fill="#f3f7fa" stroke="#607d8b" stroke-width="1.6" d="M538,-8C538,-8 740,-8 740,-8 746,-8 752,-14 752,-20 752,-20 752,-2765.31 752,-2765.31 752,-2771.31 746,-2777.31 740,-2777.31 740,-2777.31 538,-2777.31 538,-2777.31 532,-2777.31 526,-2771.31 526,-2765.31 526,-2765.31 526,-20 526,-20 526,-14 532,-8 538,-8"/>
<text xml:space="preserve" text-anchor="start" x="534" y="-2759.11" font-family="Helvetica,sans-Serif" font-weight="bold" font-size="16.00">main</text>
</g>
<!-- f0_order -->
<!-- f1_order -->
<!-- f0_order&#45;&gt;f1_order -->
<!-- f2_order -->
<!-- f1_order&#45;&gt;f2_order -->
<!-- f3_order -->
<!-- f2_order&#45;&gt;f3_order -->
<!-- f4_order -->
<!-- f3_order&#45;&gt;f4_order -->
<!-- f5_order -->
<!-- f4_order&#45;&gt;f5_order -->
<!-- f6_order -->
<!-- f5_order&#45;&gt;f6_order -->
<!-- f7_order -->
<!-- f6_order&#45;&gt;f7_order -->
<!-- f8_order -->
<!-- f7_order&#45;&gt;f8_order -->
<!-- f9_order -->
<!-- f8_order&#45;&gt;f9_order -->
<!-- f10_order -->
<!-- f9_order&#45;&gt;f10_order -->
<!-- f11_order -->
<!-- f10_order&#45;&gt;f11_order -->
<!-- f12_order -->
<!-- f11_order&#45;&gt;f12_order -->
<!-- f11_entry -->
<g id="node13" class="node">
<title>f11_entry</title>
<ellipse fill="#81c784" stroke="#2e7d32" cx="224" cy="-2720.32" rx="12.24" ry="12.24"/>
</g>
<!-- f11_bb0 -->
<g id="node14" class="node">
<title>f11_bb0</title>
<polygon fill="#edf7ee" stroke="none" points="137.12,-2447.33 137.12,-2606.83 310.88,-2606.83 310.88,-2447.33 137.12,-2447.33"/>
<polygon fill="#c8e6c9" stroke="none" points="138.12,-2574.33 138.12,-2605.83 309.88,-2605.83 309.88,-2574.33 138.12,-2574.33"/>
<text xml:space="preserve" text-anchor="start" x="144.12" y="-2587.53" font-family="Menlo" font-weight="bold" font-size="14.00">bb0 [entry]</text>
<text xml:space="preserve" text-anchor="start" x="144.12" y="-2553.33" font-family="Menlo" font-size="14.00">v3 = const 1</text>
<text xml:space="preserve" text-anchor="start" x="144.12" y="-2521.83" font-family="Menlo" font-size="14.00">v4 = call &lt;(v0, v3) [const]</text>
<text xml:space="preserve" text-anchor="start" x="144.12" y="-2490.33" font-family="Menlo" font-size="14.00">v5 = bool&#45;cast v4</text>
<text xml:space="preserve" text-anchor="start" x="144.12" y="-2458.83" font-family="Menlo" font-size="14.00">if v5 then bb3 else bb4</text>
<polygon fill="none" stroke="#455a64" points="137.12,-2447.33 137.12,-2606.83 310.88,-2606.83 310.88,-2447.33 137.12,-2447.33"/>
</g>
<!-- f11_entry&#45;&gt;f11_bb0 -->
<g id="edge1" class="edge">
<title>f11_entry&#45;&gt;f11_bb0</title>
<path fill="none" stroke="#2e7d32" stroke-width="1.4" d="M224,-2707.64C224,-2689.64 224,-2653.51 224,-2618.35"/>
<polygon fill="#2e7d32" stroke="#2e7d32" stroke-width="1.4" points="227.5,-2618.61 224,-2608.61 220.5,-2618.61 227.5,-2618.61"/>
<text xml:space="preserve" text-anchor="middle" x="242" y="-2661.78" font-family="Menlo" font-size="14.00">entry</text>
</g>
<!-- f11_bb3 -->
<g id="node17" class="node">
<title>f11_bb3</title>
<polygon fill="#f8fafb" stroke="none" points="125.75,-2120.08 125.75,-2185.08 198.25,-2185.08 198.25,-2120.08 125.75,-2120.08"/>
<polygon fill="#eceff1" stroke="none" points="126.75,-2152.58 126.75,-2184.08 197.25,-2184.08 197.25,-2152.58 126.75,-2152.58"/>
<text xml:space="preserve" text-anchor="start" x="132.75" y="-2165.78" font-family="Menlo" font-weight="bold" font-size="14.00">bb3</text>
<text xml:space="preserve" text-anchor="start" x="132.75" y="-2131.58" font-family="Menlo" font-size="14.00">goto bb2</text>
<polygon fill="none" stroke="#455a64" points="125.75,-2120.08 125.75,-2185.08 198.25,-2185.08 198.25,-2120.08 125.75,-2120.08"/>
</g>
<!-- f11_bb0&#45;&gt;f11_bb3 -->
<g id="edge2" class="edge">
<title>f11_bb0&#45;&gt;f11_bb3</title>
<path fill="none" stroke="#2e7d32" stroke-width="1.3" d="M210.93,-2447.53C198.2,-2371.09 179.34,-2257.77 169.15,-2196.56"/>
<polygon fill="#2e7d32" stroke="#2e7d32" stroke-width="1.3" points="172.65,-2196.26 167.56,-2186.98 165.75,-2197.41 172.65,-2196.26"/>
<text xml:space="preserve" text-anchor="middle" x="205.93" y="-2385.28" font-family="Menlo" font-size="14.00">T</text>
</g>
<!-- f11_bb4 -->
<g id="node18" class="node">
<title>f11_bb4</title>
<polygon fill="#f8fafb" stroke="none" points="217,-2218.08 217,-2346.08 381,-2346.08 381,-2218.08 217,-2218.08"/>
<polygon fill="#eceff1" stroke="none" points="218,-2313.58 218,-2345.08 380,-2345.08 380,-2313.58 218,-2313.58"/>
<text xml:space="preserve" text-anchor="start" x="224" y="-2326.78" font-family="Menlo" font-weight="bold" font-size="14.00">bb4</text>
<text xml:space="preserve" text-anchor="start" x="224" y="-2292.58" font-family="Menlo" font-size="14.00">v6 = const 1</text>
<text xml:space="preserve" text-anchor="start" x="224" y="-2261.08" font-family="Menlo" font-size="14.00">v7 = bool&#45;cast v6</text>
<text xml:space="preserve" text-anchor="start" x="224" y="-2229.58" font-family="Menlo" font-size="14.00">if v7 then bb5 else bb6</text>
<polygon fill="none" stroke="#455a64" points="217,-2218.08 217,-2346.08 381,-2346.08 381,-2218.08 217,-2218.08"/>
</g>
<!-- f11_bb0&#45;&gt;f11_bb4 -->
<g id="edge3" class="edge">
<title>f11_bb0&#45;&gt;f11_bb4</title>
<path fill="none" stroke="#c62828" stroke-width="1.3" d="M248.25,-2447.52C257.2,-2418.5 267.31,-2385.74 276.14,-2357.14"/>
<polygon fill="#c62828" stroke="#c62828" stroke-width="1.3" points="279.4,-2358.46 279,-2347.87 272.71,-2356.39 279.4,-2358.46"/>
<text xml:space="preserve" text-anchor="middle" x="271.97" y="-2385.28" font-family="Menlo" font-size="14.00">F</text>
</g>
<!-- f11_bb1 -->
<g id="node15" class="node">
<title>f11_bb1</title>
<polygon fill="#fff8ef" stroke="none" points="259,-1563.58 259,-1628.58 339,-1628.58 339,-1563.58 259,-1563.58"/>
<polygon fill="#ffe0b2" stroke="none" points="260,-1596.08 260,-1627.58 338,-1627.58 338,-1596.08 260,-1596.08"/>
<text xml:space="preserve" text-anchor="start" x="266" y="-1609.28" font-family="Menlo" font-weight="bold" font-size="14.00">bb1 [exit]</text>
<text xml:space="preserve" text-anchor="start" x="266" y="-1575.08" font-family="Menlo" font-size="14.00">return v2</text>
<polygon fill="none" stroke="#455a64" points="259,-1563.58 259,-1628.58 339,-1628.58 339,-1563.58 259,-1563.58"/>
</g>
<!-- f11_ret -->
<g id="node21" class="node">
<title>f11_ret</title>
<ellipse fill="none" stroke="#6a1b9a" stroke-width="1.4" cx="299" cy="-1432.53" rx="41.54" ry="41.54"/>
<ellipse fill="none" stroke="#6a1b9a" stroke-width="1.4" cx="299" cy="-1432.53" rx="45.54" ry="45.54"/>
<text xml:space="preserve" text-anchor="middle" x="299" y="-1428.98" font-family="Menlo" font-size="14.00">return</text>
</g>
<!-- f11_bb1&#45;&gt;f11_ret -->
<g id="edge10" class="edge">
<title>f11_bb1&#45;&gt;f11_ret</title>
<path fill="none" stroke="#6a1b9a" stroke-dasharray="5,2" d="M299,-1563.93C299,-1543.03 299,-1514.9 299,-1490.12"/>
<polygon fill="#6a1b9a" stroke="#6a1b9a" points="302.5,-1490.15 299,-1480.15 295.5,-1490.15 302.5,-1490.15"/>
<text xml:space="preserve" text-anchor="middle" x="306.5" y="-1517.28" font-family="Menlo" font-size="14.00">v2</text>
</g>
<!-- f11_bb2 -->
<g id="node16" class="node">
<title>f11_bb2</title>
<polygon fill="#f8fafb" stroke="none" points="210.25,-1714.08 210.25,-1810.58 387.75,-1810.58 387.75,-1714.08 210.25,-1714.08"/>
<polygon fill="#eceff1" stroke="none" points="211.25,-1778.08 211.25,-1809.58 386.75,-1809.58 386.75,-1778.08 211.25,-1778.08"/>
<text xml:space="preserve" text-anchor="start" x="217.25" y="-1791.28" font-family="Menlo" font-weight="bold" font-size="14.00">bb2</text>
<text xml:space="preserve" text-anchor="start" x="217.25" y="-1757.08" font-family="Menlo" font-size="14.00">v2 = phi(bb5:v11, bb3:v1)</text>
<text xml:space="preserve" text-anchor="start" x="217.25" y="-1725.58" font-family="Menlo" font-size="14.00">goto bb1</text>
<polygon fill="none" stroke="#455a64" points="210.25,-1714.08 210.25,-1810.58 387.75,-1810.58 387.75,-1714.08 210.25,-1714.08"/>
</g>
<!-- f11_bb2&#45;&gt;f11_bb1 -->
<g id="edge4" class="edge">
<title>f11_bb2&#45;&gt;f11_bb1</title>
<path fill="none" stroke="#1565c0" d="M299,-1714.26C299,-1690.85 299,-1662.76 299,-1639.95"/>
<polygon fill="#1565c0" stroke="#1565c0" points="302.5,-1640.07 299,-1630.07 295.5,-1640.07 302.5,-1640.07"/>
<text xml:space="preserve" text-anchor="middle" x="314" y="-1667.78" font-family="Menlo" font-size="14.00">goto</text>
</g>
<!-- f11_bb3&#45;&gt;f11_bb2 -->
<g id="edge5" class="edge">
<title>f11_bb3&#45;&gt;f11_bb2</title>
<path fill="none" stroke="#1565c0" d="M152.53,-2120.44C139.17,-2070.62 119.87,-1970.97 153,-1896.08 166.57,-1865.39 191.14,-1838.75 216.29,-1817.55"/>
<polygon fill="#1565c0" stroke="#1565c0" points="218.49,-1820.28 224.02,-1811.24 214.06,-1814.85 218.49,-1820.28"/>
<text xml:space="preserve" text-anchor="middle" x="168" y="-1988.03" font-family="Menlo" font-size="14.00">goto</text>
</g>
<!-- f11_bb5 -->
<g id="node19" class="node">
<title>f11_bb5</title>
<polygon fill="#f8fafb" stroke="none" points="195.62,-1896.08 195.62,-2087.08 402.38,-2087.08 402.38,-1896.08 195.62,-1896.08"/>
<polygon fill="#eceff1" stroke="none" points="196.62,-2054.58 196.62,-2086.08 401.38,-2086.08 401.38,-2054.58 196.62,-2054.58"/>
<text xml:space="preserve" text-anchor="start" x="202.62" y="-2067.78" font-family="Menlo" font-weight="bold" font-size="14.00">bb5</text>
<text xml:space="preserve" text-anchor="start" x="202.62" y="-2033.58" font-family="Menlo" font-size="14.00">v8 = const 1</text>
<text xml:space="preserve" text-anchor="start" x="202.62" y="-2002.08" font-family="Menlo" font-size="14.00">v9 = call &#45;(v0, v8) [const]</text>
<text xml:space="preserve" text-anchor="start" x="202.62" y="-1970.58" font-family="Menlo" font-size="14.00">v10 = call +(v0, v1) [const]</text>
<text xml:space="preserve" text-anchor="start" x="202.62" y="-1939.08" font-family="Menlo" font-size="14.00">v11 = call heavy_sum(v9, v10)</text>
<text xml:space="preserve" text-anchor="start" x="202.62" y="-1907.58" font-family="Menlo" font-size="14.00">goto bb2</text>
<polygon fill="none" stroke="#455a64" points="195.62,-1896.08 195.62,-2087.08 402.38,-2087.08 402.38,-1896.08 195.62,-1896.08"/>
</g>
<!-- f11_bb4&#45;&gt;f11_bb5 -->
<g id="edge6" class="edge">
<title>f11_bb4&#45;&gt;f11_bb5</title>
<path fill="none" stroke="#2e7d32" stroke-width="1.3" d="M299,-2218.12C299,-2183.19 299,-2138.81 299,-2098.67"/>
<polygon fill="#2e7d32" stroke="#2e7d32" stroke-width="1.3" points="302.5,-2098.89 299,-2088.89 295.5,-2098.89 302.5,-2098.89"/>
<text xml:space="preserve" text-anchor="middle" x="302.75" y="-2149.03" font-family="Menlo" font-size="14.00">T</text>
</g>
<!-- f11_bb6 -->
<g id="node20" class="node">
<title>f11_bb6</title>
<polygon fill="#f8fafb" stroke="none" points="427.75,-1959.08 427.75,-2024.08 500.25,-2024.08 500.25,-1959.08 427.75,-1959.08"/>
<polygon fill="#eceff1" stroke="none" points="428.75,-1991.58 428.75,-2023.08 499.25,-2023.08 499.25,-1991.58 428.75,-1991.58"/>
<text xml:space="preserve" text-anchor="start" x="434.75" y="-2004.78" font-family="Menlo" font-weight="bold" font-size="14.00">bb6</text>
<text xml:space="preserve" text-anchor="start" x="434.75" y="-1970.58" font-family="Menlo" font-size="14.00">goto bb2</text>
<polygon fill="none" stroke="#455a64" points="427.75,-1959.08 427.75,-2024.08 500.25,-2024.08 500.25,-1959.08 427.75,-1959.08"/>
</g>
<!-- f11_bb4&#45;&gt;f11_bb6 -->
<g id="edge7" class="edge">
<title>f11_bb4&#45;&gt;f11_bb6</title>
<path fill="none" stroke="#c62828" stroke-width="1.3" d="M337.85,-2218.29C360.86,-2180.58 390.25,-2131.46 415,-2087.08 424.52,-2069.99 434.55,-2050.89 443.03,-2034.35"/>
<polygon fill="#c62828" stroke="#c62828" stroke-width="1.3" points="446.04,-2036.15 447.46,-2025.65 439.8,-2032.97 446.04,-2036.15"/>
<text xml:space="preserve" text-anchor="middle" x="397.37" y="-2149.03" font-family="Menlo" font-size="14.00">F</text>
</g>
<!-- f11_bb5&#45;&gt;f11_bb2 -->
<g id="edge8" class="edge">
<title>f11_bb5&#45;&gt;f11_bb2</title>
<path fill="none" stroke="#1565c0" d="M299,-1896.17C299,-1871.04 299,-1844.62 299,-1822.02"/>
<polygon fill="#1565c0" stroke="#1565c0" points="302.5,-1822.09 299,-1812.09 295.5,-1822.09 302.5,-1822.09"/>
<text xml:space="preserve" text-anchor="middle" x="314" y="-1849.78" font-family="Menlo" font-size="14.00">goto</text>
</g>
<!-- f11_bb6&#45;&gt;f11_bb2 -->
<g id="edge9" class="edge">
<title>f11_bb6&#45;&gt;f11_bb2</title>
<path fill="none" stroke="#1565c0" d="M450.11,-1959.29C441.15,-1940.36 428.63,-1916.08 415,-1896.08 396.65,-1869.16 373.51,-1841.68 352.73,-1818.75"/>
<polygon fill="#1565c0" stroke="#1565c0" points="355.56,-1816.65 346.22,-1811.64 350.39,-1821.38 355.56,-1816.65"/>
<text xml:space="preserve" text-anchor="middle" x="404.06" y="-1849.78" font-family="Menlo" font-size="14.00">goto</text>
</g>
<!-- f12_entry -->
<g id="node23" class="node">
<title>f12_entry</title>
<ellipse fill="#81c784" stroke="#2e7d32" cx="639" cy="-2720.32" rx="12.24" ry="12.24"/>
</g>
<!-- f12_bb0 -->
<g id="node24" class="node">
<title>f12_bb0</title>
<polygon fill="#edf7ee" stroke="none" points="543.88,-2431.58 543.88,-2622.58 734.12,-2622.58 734.12,-2431.58 543.88,-2431.58"/>
<polygon fill="#c8e6c9" stroke="none" points="544.88,-2590.08 544.88,-2621.58 733.12,-2621.58 733.12,-2590.08 544.88,-2590.08"/>
<text xml:space="preserve" text-anchor="start" x="550.88" y="-2603.28" font-family="Menlo" font-weight="bold" font-size="14.00">bb0 [entry]</text>
<text xml:space="preserve" text-anchor="start" x="550.88" y="-2569.08" font-family="Menlo" font-size="14.00">v2 = const 10000000</text>
<text xml:space="preserve" text-anchor="start" x="550.88" y="-2537.58" font-family="Menlo" font-size="14.00">v3 = const 0</text>
<text xml:space="preserve" text-anchor="start" x="550.88" y="-2506.08" font-family="Menlo" font-size="14.00">v4 = call heavy_sum(v2, v3)</text>
<text xml:space="preserve" text-anchor="start" x="550.88" y="-2474.58" font-family="Menlo" font-size="14.00">v5 = call print_int(v4)</text>
<text xml:space="preserve" text-anchor="start" x="550.88" y="-2443.08" font-family="Menlo" font-size="14.00">goto bb1</text>
<polygon fill="none" stroke="#455a64" points="543.88,-2431.58 543.88,-2622.58 734.12,-2622.58 734.12,-2431.58 543.88,-2431.58"/>
</g>
<!-- f12_entry&#45;&gt;f12_bb0 -->
<g id="edge11" class="edge">
<title>f12_entry&#45;&gt;f12_bb0</title>
<path fill="none" stroke="#2e7d32" stroke-width="1.4" d="M639,-2707.64C639,-2692.32 639,-2663.86 639,-2634.04"/>
<polygon fill="#2e7d32" stroke="#2e7d32" stroke-width="1.4" points="642.5,-2634.24 639,-2624.24 635.5,-2634.24 642.5,-2634.24"/>
<text xml:space="preserve" text-anchor="middle" x="657" y="-2661.78" font-family="Menlo" font-size="14.00">entry</text>
</g>
<!-- f12_bb1 -->
<g id="node25" class="node">
<title>f12_bb1</title>
<polygon fill="#fff8ef" stroke="none" points="599,-2249.58 599,-2314.58 679,-2314.58 679,-2249.58 599,-2249.58"/>
<polygon fill="#ffe0b2" stroke="none" points="600,-2282.08 600,-2313.58 678,-2313.58 678,-2282.08 600,-2282.08"/>
<text xml:space="preserve" text-anchor="start" x="606" y="-2295.28" font-family="Menlo" font-weight="bold" font-size="14.00">bb1 [exit]</text>
<text xml:space="preserve" text-anchor="start" x="606" y="-2261.08" font-family="Menlo" font-size="14.00">return v5</text>
<polygon fill="none" stroke="#455a64" points="599,-2249.58 599,-2314.58 679,-2314.58 679,-2249.58 599,-2249.58"/>
</g>
<!-- f12_bb0&#45;&gt;f12_bb1 -->
<g id="edge12" class="edge">
<title>f12_bb0&#45;&gt;f12_bb1</title>
<path fill="none" stroke="#1565c0" d="M639,-2431.78C639,-2395.19 639,-2355.14 639,-2325.83"/>
<polygon fill="#1565c0" stroke="#1565c0" points="642.5,-2325.88 639,-2315.88 635.5,-2325.88 642.5,-2325.88"/>
<text xml:space="preserve" text-anchor="middle" x="654" y="-2385.28" font-family="Menlo" font-size="14.00">goto</text>
</g>
<!-- f12_ret -->
<g id="node26" class="node">
<title>f12_ret</title>
<ellipse fill="none" stroke="#6a1b9a" stroke-width="1.4" cx="639" cy="-1991.58" rx="41.54" ry="41.54"/>
<ellipse fill="none" stroke="#6a1b9a" stroke-width="1.4" cx="639" cy="-1991.58" rx="45.54" ry="45.54"/>
<text xml:space="preserve" text-anchor="middle" x="639" y="-1988.03" font-family="Menlo" font-size="14.00">return</text>
</g>
<!-- f12_bb1&#45;&gt;f12_ret -->
<g id="edge13" class="edge">
<title>f12_bb1&#45;&gt;f12_ret</title>
<path fill="none" stroke="#6a1b9a" stroke-dasharray="5,2" d="M639,-2249.65C639,-2201.49 639,-2108.74 639,-2048.8"/>
<polygon fill="#6a1b9a" stroke="#6a1b9a" points="642.5,-2049.16 639,-2039.16 635.5,-2049.16 642.5,-2049.16"/>
<text xml:space="preserve" text-anchor="middle" x="646.5" y="-2149.03" font-family="Menlo" font-size="14.00">v5</text>
</g>
</g>
</svg>
